<svg width="150" height="150" viewBox="0 0 187 187" fill="none" xmlns="http://www.w3.org/2000/svg">
<circle cx="93.5" cy="93.5" r="93.5" fill="#25A979"/>
<circle cx="94" cy="94" r="69" fill="black"/>
<path d="M118.894 89.5198C118.646 88.8572 118.01 88.4167 117.299 88.4167H96.772L108.612 65.4705C108.985 64.7487 108.793 63.8659 108.152 63.3643C107.842 63.1203 107.47 63 107.099 63C106.703 63 106.307 63.1389 105.989 63.4117L93.4995 74.163L68.5896 95.6062C68.0524 96.0688 67.8586 96.816 68.1068 97.4786C68.355 98.1411 68.9891 98.5833 69.6997 98.5833H90.2271L78.3866 121.529C78.0144 122.251 78.2064 123.134 78.8473 123.636C79.1567 123.88 79.529 124 79.8996 124C80.2957 124 80.6918 123.861 81.0097 123.588L93.4995 112.837L118.409 91.3938C118.948 90.9312 119.14 90.184 118.894 89.5198Z" fill="white"/>
</svg>
