<svg width="150" height="150" viewBox="0 0 187 187" fill="none" xmlns="http://www.w3.org/2000/svg">
<circle cx="93.5" cy="93.5" r="93.5" fill="#25A979"/>
<rect x="17" y="48" width="153" height="36" rx="5" fill="black"/>
<path d="M50.4336 71.8574C49.9238 71.8574 49.4961 71.7578 49.1504 71.5586C48.8105 71.3535 48.5381 71.0869 48.333 70.7588C48.1221 70.4365 47.9697 70.0732 47.876 69.6689C47.7881 69.2588 47.7441 68.8457 47.7441 68.4297V68.0605C47.7441 67.6504 47.7881 67.2432 47.876 66.8389C47.9697 66.4346 48.1221 66.0684 48.333 65.7402C48.5439 65.418 48.8193 65.1572 49.1592 64.958C49.5049 64.7529 49.9297 64.6504 50.4336 64.6504C50.7617 64.6504 51.0664 64.7061 51.3477 64.8174C51.6348 64.9287 51.8809 65.0811 52.0859 65.2744C52.291 65.4678 52.4521 65.6934 52.5693 65.9512C52.6924 66.2031 52.7568 66.4727 52.7627 66.7598H54.3008C54.3008 66.2793 54.2041 65.8281 54.0107 65.4062C53.8174 64.9844 53.5508 64.6182 53.2109 64.3076C52.8652 64.0029 52.4551 63.7627 51.9805 63.5869C51.5117 63.4053 50.9961 63.3145 50.4336 63.3145C49.7129 63.3145 49.083 63.4434 48.5439 63.7012C48.0049 63.959 47.5566 64.3047 47.1992 64.7383C46.8359 65.1777 46.5635 65.6846 46.3818 66.2588C46.2002 66.833 46.1094 67.4336 46.1094 68.0605V68.4297C46.1094 69.0625 46.2002 69.666 46.3818 70.2402C46.5635 70.8086 46.8359 71.3096 47.1992 71.7432C47.5566 72.1826 48.0049 72.5312 48.5439 72.7891C49.083 73.0469 49.7129 73.1758 50.4336 73.1758C50.9375 73.1758 51.4209 73.0908 51.8838 72.9209C52.3467 72.7451 52.7568 72.5107 53.1143 72.2178C53.4717 71.9307 53.7559 71.5967 53.9668 71.2158C54.1836 70.8291 54.2949 70.4248 54.3008 70.0029H52.7627C52.7568 70.2666 52.6865 70.5127 52.5518 70.7412C52.4229 70.9639 52.25 71.1572 52.0332 71.3213C51.8164 71.4912 51.5674 71.623 51.2861 71.7168C51.0107 71.8105 50.7266 71.8574 50.4336 71.8574ZM57.4473 59.5V60.915H60.6816V71.5938H57.4473V73H65.4102V71.5938H62.3076V59.5H57.4473ZM68.2578 63.4902V64.9053H71.4922V71.5938H68.2578V73H76.2207V71.5938H73.1182V63.4902H68.2578ZM71.2812 60.9941C71.2812 61.2578 71.3604 61.4775 71.5186 61.6533C71.6826 61.8291 71.9287 61.917 72.2568 61.917C72.5791 61.917 72.8223 61.8291 72.9863 61.6533C73.1504 61.4775 73.2324 61.2578 73.2324 60.9941C73.2324 60.8477 73.209 60.7129 73.1621 60.5898C73.1152 60.4668 73.0449 60.3643 72.9512 60.2822C72.875 60.2061 72.7783 60.1475 72.6611 60.1064C72.5439 60.0596 72.4092 60.0361 72.2568 60.0361C72.1045 60.0361 71.9668 60.0596 71.8438 60.1064C71.7266 60.1475 71.6299 60.2061 71.5537 60.2822C71.46 60.3701 71.3896 60.4756 71.3428 60.5986C71.3018 60.7217 71.2812 60.8535 71.2812 60.9941ZM83.0146 73.1758C83.9404 73.1758 84.7168 72.9912 85.3438 72.6221C85.9766 72.2471 86.4512 71.8193 86.7676 71.3389L85.7744 70.5654C85.4756 70.9521 85.1006 71.2627 84.6494 71.4971C84.1982 71.7314 83.6826 71.8486 83.1025 71.8486C82.6631 71.8486 82.2617 71.7666 81.8984 71.6025C81.5352 71.4385 81.2246 71.2129 80.9668 70.9258C80.7148 70.6562 80.5156 70.3457 80.3691 69.9941C80.2285 69.6426 80.1377 69.2354 80.0967 68.7725V68.7109H86.8906V67.9814C86.8906 67.3193 86.8057 66.7041 86.6357 66.1357C86.4717 65.5674 86.2197 65.0723 85.8799 64.6504C85.54 64.2344 85.1123 63.9092 84.5967 63.6748C84.0869 63.4346 83.4893 63.3145 82.8037 63.3145C82.2588 63.3145 81.7256 63.4258 81.2041 63.6484C80.6885 63.8711 80.2285 64.1904 79.8242 64.6064C79.4141 65.0283 79.0859 65.5439 78.8398 66.1533C78.5938 66.7568 78.4707 67.4424 78.4707 68.21V68.5791C78.4707 69.2412 78.582 69.8535 78.8047 70.416C79.0273 70.9785 79.3379 71.4648 79.7363 71.875C80.1348 72.2852 80.6123 72.6045 81.1689 72.833C81.7314 73.0615 82.3467 73.1758 83.0146 73.1758ZM82.8037 64.6504C83.2197 64.6504 83.5771 64.7266 83.876 64.8789C84.1807 65.0312 84.4326 65.2305 84.6318 65.4766C84.8311 65.7227 84.9863 66.0156 85.0977 66.3555C85.209 66.6895 85.2646 67.0029 85.2646 67.2959V67.375H80.1494C80.2139 66.9355 80.3252 66.5488 80.4834 66.2148C80.6475 65.875 80.8467 65.5879 81.0811 65.3535C81.3154 65.125 81.5791 64.9521 81.8721 64.835C82.165 64.7119 82.4756 64.6504 82.8037 64.6504ZM89.624 73H91.25V66.1797C91.3613 65.9746 91.4902 65.7871 91.6367 65.6172C91.7891 65.4473 91.9531 65.2979 92.1289 65.1689C92.3457 65.0225 92.583 64.9082 92.8408 64.8262C93.0986 64.7383 93.377 64.6943 93.6758 64.6943C94.0215 64.6943 94.3262 64.7354 94.5898 64.8174C94.8594 64.8994 95.0879 65.0312 95.2754 65.2129C95.457 65.3945 95.5947 65.6318 95.6885 65.9248C95.7822 66.2178 95.8291 66.5752 95.8291 66.9971V73H97.4551V66.9619C97.4551 66.3291 97.376 65.7842 97.2178 65.3271C97.0654 64.8643 96.8457 64.4834 96.5586 64.1846C96.2715 63.8857 95.9229 63.666 95.5127 63.5254C95.1084 63.3848 94.6572 63.3145 94.1592 63.3145C93.79 63.3203 93.4385 63.376 93.1045 63.4814C92.7764 63.5811 92.4717 63.7246 92.1904 63.9121C92.0029 64.0352 91.8242 64.1816 91.6543 64.3516C91.4902 64.5156 91.3379 64.6973 91.1973 64.8965L91.083 63.4902H89.624V73ZM104.284 61.1875H102.649V63.4902H100.153V64.7471H102.649V69.915C102.649 70.501 102.726 71.002 102.878 71.418C103.036 71.8281 103.25 72.1621 103.52 72.4199C103.789 72.6836 104.105 72.877 104.469 73C104.838 73.1172 105.233 73.1758 105.655 73.1758C105.907 73.1758 106.159 73.1641 106.411 73.1406C106.669 73.1172 106.912 73.082 107.141 73.0352C107.369 72.9941 107.58 72.9443 107.773 72.8857C107.967 72.8213 108.131 72.748 108.266 72.666L108.037 71.5146C107.938 71.5381 107.809 71.5674 107.65 71.6025C107.498 71.6318 107.334 71.6611 107.158 71.6904C106.977 71.7197 106.792 71.7461 106.604 71.7695C106.417 71.7871 106.235 71.7959 106.06 71.7959C105.819 71.7959 105.591 71.7666 105.374 71.708C105.163 71.6494 104.976 71.5469 104.812 71.4004C104.647 71.2598 104.519 71.0693 104.425 70.8291C104.331 70.5889 104.284 70.2842 104.284 69.915V64.7471H107.905V63.4902H104.284V61.1875ZM119.138 74.3271V73H111.078V74.3271H119.138ZM122.311 63.4902V64.9053H125.545V71.5938H122.311V73H130.273V71.5938H127.171V63.4902H122.311ZM125.334 60.9941C125.334 61.2578 125.413 61.4775 125.571 61.6533C125.735 61.8291 125.981 61.917 126.31 61.917C126.632 61.917 126.875 61.8291 127.039 61.6533C127.203 61.4775 127.285 61.2578 127.285 60.9941C127.285 60.8477 127.262 60.7129 127.215 60.5898C127.168 60.4668 127.098 60.3643 127.004 60.2822C126.928 60.2061 126.831 60.1475 126.714 60.1064C126.597 60.0596 126.462 60.0361 126.31 60.0361C126.157 60.0361 126.02 60.0596 125.896 60.1064C125.779 60.1475 125.683 60.2061 125.606 60.2822C125.513 60.3701 125.442 60.4756 125.396 60.5986C125.354 60.7217 125.334 60.8535 125.334 60.9941ZM132.559 68.166V68.3506C132.559 69.0303 132.649 69.666 132.831 70.2578C133.013 70.8438 133.268 71.3535 133.596 71.7871C133.924 72.2207 134.319 72.5605 134.782 72.8066C135.251 73.0527 135.772 73.1758 136.347 73.1758C136.933 73.1758 137.445 73.0762 137.885 72.877C138.324 72.6777 138.702 72.3848 139.019 71.998L139.089 73H140.583V59.5H138.957V64.4307C138.646 64.0674 138.277 63.792 137.85 63.6045C137.428 63.4111 136.933 63.3145 136.364 63.3145C135.784 63.3145 135.26 63.4346 134.791 63.6748C134.322 63.915 133.924 64.249 133.596 64.6768C133.262 65.1045 133.004 65.6172 132.822 66.2148C132.646 66.8066 132.559 67.457 132.559 68.166ZM134.185 68.3506V68.166C134.185 67.7031 134.234 67.2637 134.334 66.8477C134.434 66.4258 134.589 66.0537 134.8 65.7314C135.005 65.415 135.269 65.1631 135.591 64.9756C135.919 64.7881 136.312 64.6943 136.769 64.6943C137.302 64.6943 137.747 64.8203 138.104 65.0723C138.462 65.3184 138.746 65.6348 138.957 66.0215V70.4336C138.746 70.8496 138.462 71.1807 138.104 71.4268C137.747 71.6729 137.296 71.7959 136.751 71.7959C136.3 71.7959 135.913 71.7051 135.591 71.5234C135.269 71.3359 135.005 71.084 134.8 70.7676C134.589 70.4512 134.434 70.085 134.334 69.6689C134.234 69.2529 134.185 68.8135 134.185 68.3506Z" fill="white"/>
<rect x="17" y="99" width="153" height="36" rx="5" fill="black"/>
<path d="M28.8125 122.857C28.3027 122.857 27.875 122.758 27.5293 122.559C27.1895 122.354 26.917 122.087 26.7119 121.759C26.501 121.437 26.3486 121.073 26.2549 120.669C26.167 120.259 26.123 119.846 26.123 119.43V119.061C26.123 118.65 26.167 118.243 26.2549 117.839C26.3486 117.435 26.501 117.068 26.7119 116.74C26.9229 116.418 27.1982 116.157 27.5381 115.958C27.8838 115.753 28.3086 115.65 28.8125 115.65C29.1406 115.65 29.4453 115.706 29.7266 115.817C30.0137 115.929 30.2598 116.081 30.4648 116.274C30.6699 116.468 30.8311 116.693 30.9482 116.951C31.0713 117.203 31.1357 117.473 31.1416 117.76H32.6797C32.6797 117.279 32.583 116.828 32.3896 116.406C32.1963 115.984 31.9297 115.618 31.5898 115.308C31.2441 115.003 30.834 114.763 30.3594 114.587C29.8906 114.405 29.375 114.314 28.8125 114.314C28.0918 114.314 27.4619 114.443 26.9229 114.701C26.3838 114.959 25.9355 115.305 25.5781 115.738C25.2148 116.178 24.9424 116.685 24.7607 117.259C24.5791 117.833 24.4883 118.434 24.4883 119.061V119.43C24.4883 120.062 24.5791 120.666 24.7607 121.24C24.9424 121.809 25.2148 122.31 25.5781 122.743C25.9355 123.183 26.3838 123.531 26.9229 123.789C27.4619 124.047 28.0918 124.176 28.8125 124.176C29.3164 124.176 29.7998 124.091 30.2627 123.921C30.7256 123.745 31.1357 123.511 31.4932 123.218C31.8506 122.931 32.1348 122.597 32.3457 122.216C32.5625 121.829 32.6738 121.425 32.6797 121.003H31.1416C31.1357 121.267 31.0654 121.513 30.9307 121.741C30.8018 121.964 30.6289 122.157 30.4121 122.321C30.1953 122.491 29.9463 122.623 29.665 122.717C29.3896 122.811 29.1055 122.857 28.8125 122.857ZM35.8262 110.5V111.915H39.0605V122.594H35.8262V124H43.7891V122.594H40.6865V110.5H35.8262ZM46.6367 114.49V115.905H49.8711V122.594H46.6367V124H54.5996V122.594H51.4971V114.49H46.6367ZM49.6602 111.994C49.6602 112.258 49.7393 112.478 49.8975 112.653C50.0615 112.829 50.3076 112.917 50.6357 112.917C50.958 112.917 51.2012 112.829 51.3652 112.653C51.5293 112.478 51.6113 112.258 51.6113 111.994C51.6113 111.848 51.5879 111.713 51.541 111.59C51.4941 111.467 51.4238 111.364 51.3301 111.282C51.2539 111.206 51.1572 111.147 51.04 111.106C50.9229 111.06 50.7881 111.036 50.6357 111.036C50.4834 111.036 50.3457 111.06 50.2227 111.106C50.1055 111.147 50.0088 111.206 49.9326 111.282C49.8389 111.37 49.7686 111.476 49.7217 111.599C49.6807 111.722 49.6602 111.854 49.6602 111.994ZM61.3936 124.176C62.3193 124.176 63.0957 123.991 63.7227 123.622C64.3555 123.247 64.8301 122.819 65.1465 122.339L64.1533 121.565C63.8545 121.952 63.4795 122.263 63.0283 122.497C62.5771 122.731 62.0615 122.849 61.4814 122.849C61.042 122.849 60.6406 122.767 60.2773 122.603C59.9141 122.438 59.6035 122.213 59.3457 121.926C59.0938 121.656 58.8945 121.346 58.748 120.994C58.6074 120.643 58.5166 120.235 58.4756 119.772V119.711H65.2695V118.981C65.2695 118.319 65.1846 117.704 65.0146 117.136C64.8506 116.567 64.5986 116.072 64.2588 115.65C63.9189 115.234 63.4912 114.909 62.9756 114.675C62.4658 114.435 61.8682 114.314 61.1826 114.314C60.6377 114.314 60.1045 114.426 59.583 114.648C59.0674 114.871 58.6074 115.19 58.2031 115.606C57.793 116.028 57.4648 116.544 57.2188 117.153C56.9727 117.757 56.8496 118.442 56.8496 119.21V119.579C56.8496 120.241 56.9609 120.854 57.1836 121.416C57.4062 121.979 57.7168 122.465 58.1152 122.875C58.5137 123.285 58.9912 123.604 59.5479 123.833C60.1104 124.062 60.7256 124.176 61.3936 124.176ZM61.1826 115.65C61.5986 115.65 61.9561 115.727 62.2549 115.879C62.5596 116.031 62.8115 116.23 63.0107 116.477C63.21 116.723 63.3652 117.016 63.4766 117.355C63.5879 117.689 63.6436 118.003 63.6436 118.296V118.375H58.5283C58.5928 117.936 58.7041 117.549 58.8623 117.215C59.0264 116.875 59.2256 116.588 59.46 116.354C59.6943 116.125 59.958 115.952 60.251 115.835C60.5439 115.712 60.8545 115.65 61.1826 115.65ZM68.0029 124H69.6289V117.18C69.7402 116.975 69.8691 116.787 70.0156 116.617C70.168 116.447 70.332 116.298 70.5078 116.169C70.7246 116.022 70.9619 115.908 71.2197 115.826C71.4775 115.738 71.7559 115.694 72.0547 115.694C72.4004 115.694 72.7051 115.735 72.9688 115.817C73.2383 115.899 73.4668 116.031 73.6543 116.213C73.8359 116.395 73.9736 116.632 74.0674 116.925C74.1611 117.218 74.208 117.575 74.208 117.997V124H75.834V117.962C75.834 117.329 75.7549 116.784 75.5967 116.327C75.4443 115.864 75.2246 115.483 74.9375 115.185C74.6504 114.886 74.3018 114.666 73.8916 114.525C73.4873 114.385 73.0361 114.314 72.5381 114.314C72.1689 114.32 71.8174 114.376 71.4834 114.481C71.1553 114.581 70.8506 114.725 70.5693 114.912C70.3818 115.035 70.2031 115.182 70.0332 115.352C69.8691 115.516 69.7168 115.697 69.5762 115.896L69.4619 114.49H68.0029V124ZM82.6631 112.188H81.0283V114.49H78.5322V115.747H81.0283V120.915C81.0283 121.501 81.1045 122.002 81.2568 122.418C81.415 122.828 81.6289 123.162 81.8984 123.42C82.168 123.684 82.4844 123.877 82.8477 124C83.2168 124.117 83.6123 124.176 84.0342 124.176C84.2861 124.176 84.5381 124.164 84.79 124.141C85.0479 124.117 85.291 124.082 85.5195 124.035C85.748 123.994 85.959 123.944 86.1523 123.886C86.3457 123.821 86.5098 123.748 86.6445 123.666L86.416 122.515C86.3164 122.538 86.1875 122.567 86.0293 122.603C85.877 122.632 85.7129 122.661 85.5371 122.69C85.3555 122.72 85.1709 122.746 84.9834 122.77C84.7959 122.787 84.6143 122.796 84.4385 122.796C84.1982 122.796 83.9697 122.767 83.7529 122.708C83.542 122.649 83.3545 122.547 83.1904 122.4C83.0264 122.26 82.8975 122.069 82.8037 121.829C82.71 121.589 82.6631 121.284 82.6631 120.915V115.747H86.2842V114.49H82.6631V112.188ZM97.5166 125.327V124H89.457V125.327H97.5166ZM106.754 121.478C106.754 121.63 106.725 121.773 106.666 121.908C106.607 122.043 106.522 122.166 106.411 122.277C106.229 122.459 105.978 122.603 105.655 122.708C105.333 122.808 104.955 122.857 104.521 122.857C104.246 122.857 103.968 122.828 103.687 122.77C103.405 122.711 103.15 122.611 102.922 122.471C102.688 122.33 102.491 122.146 102.333 121.917C102.181 121.688 102.093 121.407 102.069 121.073H100.443C100.443 121.478 100.534 121.867 100.716 122.242C100.903 122.617 101.173 122.945 101.524 123.227C101.87 123.514 102.295 123.745 102.799 123.921C103.303 124.091 103.877 124.176 104.521 124.176C105.084 124.176 105.603 124.108 106.077 123.974C106.552 123.839 106.959 123.648 107.299 123.402C107.639 123.156 107.902 122.86 108.09 122.515C108.283 122.169 108.38 121.785 108.38 121.363C108.38 120.971 108.295 120.625 108.125 120.326C107.961 120.027 107.721 119.764 107.404 119.535C107.088 119.312 106.698 119.122 106.235 118.964C105.772 118.8 105.248 118.656 104.662 118.533C104.217 118.445 103.848 118.354 103.555 118.261C103.268 118.167 103.039 118.062 102.869 117.944C102.693 117.827 102.57 117.695 102.5 117.549C102.43 117.402 102.395 117.235 102.395 117.048C102.395 116.866 102.438 116.69 102.526 116.521C102.614 116.351 102.746 116.201 102.922 116.072C103.092 115.943 103.306 115.841 103.563 115.765C103.827 115.688 104.132 115.65 104.478 115.65C104.812 115.65 105.11 115.697 105.374 115.791C105.644 115.885 105.872 116.008 106.06 116.16C106.247 116.312 106.394 116.488 106.499 116.688C106.604 116.881 106.657 117.08 106.657 117.285H108.283C108.283 116.869 108.192 116.482 108.011 116.125C107.835 115.762 107.583 115.445 107.255 115.176C106.927 114.906 106.528 114.695 106.06 114.543C105.591 114.391 105.063 114.314 104.478 114.314C103.933 114.314 103.432 114.388 102.975 114.534C102.523 114.681 102.134 114.88 101.806 115.132C101.478 115.384 101.223 115.68 101.041 116.02C100.859 116.354 100.769 116.714 100.769 117.101C100.769 117.493 100.856 117.839 101.032 118.138C101.208 118.431 101.457 118.686 101.779 118.902C102.096 119.125 102.477 119.315 102.922 119.474C103.373 119.632 103.871 119.767 104.416 119.878C104.861 119.966 105.233 120.065 105.532 120.177C105.831 120.282 106.071 120.399 106.253 120.528C106.435 120.657 106.563 120.801 106.64 120.959C106.716 121.111 106.754 121.284 106.754 121.478ZM115.446 124.176C116.372 124.176 117.148 123.991 117.775 123.622C118.408 123.247 118.883 122.819 119.199 122.339L118.206 121.565C117.907 121.952 117.532 122.263 117.081 122.497C116.63 122.731 116.114 122.849 115.534 122.849C115.095 122.849 114.693 122.767 114.33 122.603C113.967 122.438 113.656 122.213 113.398 121.926C113.146 121.656 112.947 121.346 112.801 120.994C112.66 120.643 112.569 120.235 112.528 119.772V119.711H119.322V118.981C119.322 118.319 119.237 117.704 119.067 117.136C118.903 116.567 118.651 116.072 118.312 115.65C117.972 115.234 117.544 114.909 117.028 114.675C116.519 114.435 115.921 114.314 115.235 114.314C114.69 114.314 114.157 114.426 113.636 114.648C113.12 114.871 112.66 115.19 112.256 115.606C111.846 116.028 111.518 116.544 111.271 117.153C111.025 117.757 110.902 118.442 110.902 119.21V119.579C110.902 120.241 111.014 120.854 111.236 121.416C111.459 121.979 111.77 122.465 112.168 122.875C112.566 123.285 113.044 123.604 113.601 123.833C114.163 124.062 114.778 124.176 115.446 124.176ZM115.235 115.65C115.651 115.65 116.009 115.727 116.308 115.879C116.612 116.031 116.864 116.23 117.063 116.477C117.263 116.723 117.418 117.016 117.529 117.355C117.641 117.689 117.696 118.003 117.696 118.296V118.375H112.581C112.646 117.936 112.757 117.549 112.915 117.215C113.079 116.875 113.278 116.588 113.513 116.354C113.747 116.125 114.011 115.952 114.304 115.835C114.597 115.712 114.907 115.65 115.235 115.65ZM126.107 122.857C125.598 122.857 125.17 122.758 124.824 122.559C124.484 122.354 124.212 122.087 124.007 121.759C123.796 121.437 123.644 121.073 123.55 120.669C123.462 120.259 123.418 119.846 123.418 119.43V119.061C123.418 118.65 123.462 118.243 123.55 117.839C123.644 117.435 123.796 117.068 124.007 116.74C124.218 116.418 124.493 116.157 124.833 115.958C125.179 115.753 125.604 115.65 126.107 115.65C126.436 115.65 126.74 115.706 127.021 115.817C127.309 115.929 127.555 116.081 127.76 116.274C127.965 116.468 128.126 116.693 128.243 116.951C128.366 117.203 128.431 117.473 128.437 117.76H129.975C129.975 117.279 129.878 116.828 129.685 116.406C129.491 115.984 129.225 115.618 128.885 115.308C128.539 115.003 128.129 114.763 127.654 114.587C127.186 114.405 126.67 114.314 126.107 114.314C125.387 114.314 124.757 114.443 124.218 114.701C123.679 114.959 123.23 115.305 122.873 115.738C122.51 116.178 122.237 116.685 122.056 117.259C121.874 117.833 121.783 118.434 121.783 119.061V119.43C121.783 120.062 121.874 120.666 122.056 121.24C122.237 121.809 122.51 122.31 122.873 122.743C123.23 123.183 123.679 123.531 124.218 123.789C124.757 124.047 125.387 124.176 126.107 124.176C126.611 124.176 127.095 124.091 127.558 123.921C128.021 123.745 128.431 123.511 128.788 123.218C129.146 122.931 129.43 122.597 129.641 122.216C129.857 121.829 129.969 121.425 129.975 121.003H128.437C128.431 121.267 128.36 121.513 128.226 121.741C128.097 121.964 127.924 122.157 127.707 122.321C127.49 122.491 127.241 122.623 126.96 122.717C126.685 122.811 126.4 122.857 126.107 122.857ZM139.098 114.314C138.406 114.314 137.788 114.467 137.243 114.771C136.704 115.07 136.241 115.48 135.854 116.002L135.846 115.765L135.775 114.49H134.229V124H135.863V117.9C135.969 117.607 136.101 117.344 136.259 117.109C136.423 116.869 136.613 116.667 136.83 116.503C137.07 116.315 137.352 116.175 137.674 116.081C137.996 115.981 138.356 115.932 138.755 115.932C139.065 115.932 139.361 115.949 139.643 115.984C139.93 116.014 140.231 116.063 140.548 116.134L140.768 114.543C140.604 114.473 140.357 114.417 140.029 114.376C139.707 114.335 139.396 114.314 139.098 114.314ZM147.878 124.176C148.804 124.176 149.58 123.991 150.207 123.622C150.84 123.247 151.314 122.819 151.631 122.339L150.638 121.565C150.339 121.952 149.964 122.263 149.513 122.497C149.062 122.731 148.546 122.849 147.966 122.849C147.526 122.849 147.125 122.767 146.762 122.603C146.398 122.438 146.088 122.213 145.83 121.926C145.578 121.656 145.379 121.346 145.232 120.994C145.092 120.643 145.001 120.235 144.96 119.772V119.711H151.754V118.981C151.754 118.319 151.669 117.704 151.499 117.136C151.335 116.567 151.083 116.072 150.743 115.65C150.403 115.234 149.976 114.909 149.46 114.675C148.95 114.435 148.353 114.314 147.667 114.314C147.122 114.314 146.589 114.426 146.067 114.648C145.552 114.871 145.092 115.19 144.688 115.606C144.277 116.028 143.949 116.544 143.703 117.153C143.457 117.757 143.334 118.442 143.334 119.21V119.579C143.334 120.241 143.445 120.854 143.668 121.416C143.891 121.979 144.201 122.465 144.6 122.875C144.998 123.285 145.476 123.604 146.032 123.833C146.595 124.062 147.21 124.176 147.878 124.176ZM147.667 115.65C148.083 115.65 148.44 115.727 148.739 115.879C149.044 116.031 149.296 116.23 149.495 116.477C149.694 116.723 149.85 117.016 149.961 117.355C150.072 117.689 150.128 118.003 150.128 118.296V118.375H145.013C145.077 117.936 145.188 117.549 145.347 117.215C145.511 116.875 145.71 116.588 145.944 116.354C146.179 116.125 146.442 115.952 146.735 115.835C147.028 115.712 147.339 115.65 147.667 115.65ZM158.337 112.188H156.702V114.49H154.206V115.747H156.702V120.915C156.702 121.501 156.778 122.002 156.931 122.418C157.089 122.828 157.303 123.162 157.572 123.42C157.842 123.684 158.158 123.877 158.521 124C158.891 124.117 159.286 124.176 159.708 124.176C159.96 124.176 160.212 124.164 160.464 124.141C160.722 124.117 160.965 124.082 161.193 124.035C161.422 123.994 161.633 123.944 161.826 123.886C162.02 123.821 162.184 123.748 162.318 123.666L162.09 122.515C161.99 122.538 161.861 122.567 161.703 122.603C161.551 122.632 161.387 122.661 161.211 122.69C161.029 122.72 160.845 122.746 160.657 122.77C160.47 122.787 160.288 122.796 160.112 122.796C159.872 122.796 159.644 122.767 159.427 122.708C159.216 122.649 159.028 122.547 158.864 122.4C158.7 122.26 158.571 122.069 158.478 121.829C158.384 121.589 158.337 121.284 158.337 120.915V115.747H161.958V114.49H158.337V112.188Z" fill="white"/>
</svg>
