<svg width="120" height="120" viewBox="0 0 187 187" fill="none" xmlns="http://www.w3.org/2000/svg">
<circle cx="93.5" cy="93.5" r="93.5" fill="#25A979"/>
<circle cx="94.5" cy="92.5" r="69.5" fill="#50B892"/>
<rect x="17" y="50" width="153" height="36" rx="5" fill="black"/>
<path d="M50.4336 73.8574C49.9238 73.8574 49.4961 73.7578 49.1504 73.5586C48.8105 73.3535 48.5381 73.0869 48.333 72.7588C48.1221 72.4365 47.9697 72.0732 47.876 71.6689C47.7881 71.2588 47.7441 70.8457 47.7441 70.4297V70.0605C47.7441 69.6504 47.7881 69.2432 47.876 68.8389C47.9697 68.4346 48.1221 68.0684 48.333 67.7402C48.5439 67.418 48.8193 67.1572 49.1592 66.958C49.5049 66.7529 49.9297 66.6504 50.4336 66.6504C50.7617 66.6504 51.0664 66.7061 51.3477 66.8174C51.6348 66.9287 51.8809 67.0811 52.0859 67.2744C52.291 67.4678 52.4521 67.6934 52.5693 67.9512C52.6924 68.2031 52.7568 68.4727 52.7627 68.7598H54.3008C54.3008 68.2793 54.2041 67.8281 54.0107 67.4062C53.8174 66.9844 53.5508 66.6182 53.2109 66.3076C52.8652 66.0029 52.4551 65.7627 51.9805 65.5869C51.5117 65.4053 50.9961 65.3145 50.4336 65.3145C49.7129 65.3145 49.083 65.4434 48.5439 65.7012C48.0049 65.959 47.5566 66.3047 47.1992 66.7383C46.8359 67.1777 46.5635 67.6846 46.3818 68.2588C46.2002 68.833 46.1094 69.4336 46.1094 70.0605V70.4297C46.1094 71.0625 46.2002 71.666 46.3818 72.2402C46.5635 72.8086 46.8359 73.3096 47.1992 73.7432C47.5566 74.1826 48.0049 74.5312 48.5439 74.7891C49.083 75.0469 49.7129 75.1758 50.4336 75.1758C50.9375 75.1758 51.4209 75.0908 51.8838 74.9209C52.3467 74.7451 52.7568 74.5107 53.1143 74.2178C53.4717 73.9307 53.7559 73.5967 53.9668 73.2158C54.1836 72.8291 54.2949 72.4248 54.3008 72.0029H52.7627C52.7568 72.2666 52.6865 72.5127 52.5518 72.7412C52.4229 72.9639 52.25 73.1572 52.0332 73.3213C51.8164 73.4912 51.5674 73.623 51.2861 73.7168C51.0107 73.8105 50.7266 73.8574 50.4336 73.8574ZM57.4473 61.5V62.915H60.6816V73.5938H57.4473V75H65.4102V73.5938H62.3076V61.5H57.4473ZM68.2578 65.4902V66.9053H71.4922V73.5938H68.2578V75H76.2207V73.5938H73.1182V65.4902H68.2578ZM71.2812 62.9941C71.2812 63.2578 71.3604 63.4775 71.5186 63.6533C71.6826 63.8291 71.9287 63.917 72.2568 63.917C72.5791 63.917 72.8223 63.8291 72.9863 63.6533C73.1504 63.4775 73.2324 63.2578 73.2324 62.9941C73.2324 62.8477 73.209 62.7129 73.1621 62.5898C73.1152 62.4668 73.0449 62.3643 72.9512 62.2822C72.875 62.2061 72.7783 62.1475 72.6611 62.1064C72.5439 62.0596 72.4092 62.0361 72.2568 62.0361C72.1045 62.0361 71.9668 62.0596 71.8438 62.1064C71.7266 62.1475 71.6299 62.2061 71.5537 62.2822C71.46 62.3701 71.3896 62.4756 71.3428 62.5986C71.3018 62.7217 71.2812 62.8535 71.2812 62.9941ZM83.0146 75.1758C83.9404 75.1758 84.7168 74.9912 85.3438 74.6221C85.9766 74.2471 86.4512 73.8193 86.7676 73.3389L85.7744 72.5654C85.4756 72.9521 85.1006 73.2627 84.6494 73.4971C84.1982 73.7314 83.6826 73.8486 83.1025 73.8486C82.6631 73.8486 82.2617 73.7666 81.8984 73.6025C81.5352 73.4385 81.2246 73.2129 80.9668 72.9258C80.7148 72.6562 80.5156 72.3457 80.3691 71.9941C80.2285 71.6426 80.1377 71.2354 80.0967 70.7725V70.7109H86.8906V69.9814C86.8906 69.3193 86.8057 68.7041 86.6357 68.1357C86.4717 67.5674 86.2197 67.0723 85.8799 66.6504C85.54 66.2344 85.1123 65.9092 84.5967 65.6748C84.0869 65.4346 83.4893 65.3145 82.8037 65.3145C82.2588 65.3145 81.7256 65.4258 81.2041 65.6484C80.6885 65.8711 80.2285 66.1904 79.8242 66.6064C79.4141 67.0283 79.0859 67.5439 78.8398 68.1533C78.5938 68.7568 78.4707 69.4424 78.4707 70.21V70.5791C78.4707 71.2412 78.582 71.8535 78.8047 72.416C79.0273 72.9785 79.3379 73.4648 79.7363 73.875C80.1348 74.2852 80.6123 74.6045 81.1689 74.833C81.7314 75.0615 82.3467 75.1758 83.0146 75.1758ZM82.8037 66.6504C83.2197 66.6504 83.5771 66.7266 83.876 66.8789C84.1807 67.0312 84.4326 67.2305 84.6318 67.4766C84.8311 67.7227 84.9863 68.0156 85.0977 68.3555C85.209 68.6895 85.2646 69.0029 85.2646 69.2959V69.375H80.1494C80.2139 68.9355 80.3252 68.5488 80.4834 68.2148C80.6475 67.875 80.8467 67.5879 81.0811 67.3535C81.3154 67.125 81.5791 66.9521 81.8721 66.835C82.165 66.7119 82.4756 66.6504 82.8037 66.6504ZM89.624 75H91.25V68.1797C91.3613 67.9746 91.4902 67.7871 91.6367 67.6172C91.7891 67.4473 91.9531 67.2979 92.1289 67.1689C92.3457 67.0225 92.583 66.9082 92.8408 66.8262C93.0986 66.7383 93.377 66.6943 93.6758 66.6943C94.0215 66.6943 94.3262 66.7354 94.5898 66.8174C94.8594 66.8994 95.0879 67.0312 95.2754 67.2129C95.457 67.3945 95.5947 67.6318 95.6885 67.9248C95.7822 68.2178 95.8291 68.5752 95.8291 68.9971V75H97.4551V68.9619C97.4551 68.3291 97.376 67.7842 97.2178 67.3271C97.0654 66.8643 96.8457 66.4834 96.5586 66.1846C96.2715 65.8857 95.9229 65.666 95.5127 65.5254C95.1084 65.3848 94.6572 65.3145 94.1592 65.3145C93.79 65.3203 93.4385 65.376 93.1045 65.4814C92.7764 65.5811 92.4717 65.7246 92.1904 65.9121C92.0029 66.0352 91.8242 66.1816 91.6543 66.3516C91.4902 66.5156 91.3379 66.6973 91.1973 66.8965L91.083 65.4902H89.624V75ZM104.284 63.1875H102.649V65.4902H100.153V66.7471H102.649V71.915C102.649 72.501 102.726 73.002 102.878 73.418C103.036 73.8281 103.25 74.1621 103.52 74.4199C103.789 74.6836 104.105 74.877 104.469 75C104.838 75.1172 105.233 75.1758 105.655 75.1758C105.907 75.1758 106.159 75.1641 106.411 75.1406C106.669 75.1172 106.912 75.082 107.141 75.0352C107.369 74.9941 107.58 74.9443 107.773 74.8857C107.967 74.8213 108.131 74.748 108.266 74.666L108.037 73.5146C107.938 73.5381 107.809 73.5674 107.65 73.6025C107.498 73.6318 107.334 73.6611 107.158 73.6904C106.977 73.7197 106.792 73.7461 106.604 73.7695C106.417 73.7871 106.235 73.7959 106.06 73.7959C105.819 73.7959 105.591 73.7666 105.374 73.708C105.163 73.6494 104.976 73.5469 104.812 73.4004C104.647 73.2598 104.519 73.0693 104.425 72.8291C104.331 72.5889 104.284 72.2842 104.284 71.915V66.7471H107.905V65.4902H104.284V63.1875ZM119.138 76.3271V75H111.078V76.3271H119.138ZM122.311 65.4902V66.9053H125.545V73.5938H122.311V75H130.273V73.5938H127.171V65.4902H122.311ZM125.334 62.9941C125.334 63.2578 125.413 63.4775 125.571 63.6533C125.735 63.8291 125.981 63.917 126.31 63.917C126.632 63.917 126.875 63.8291 127.039 63.6533C127.203 63.4775 127.285 63.2578 127.285 62.9941C127.285 62.8477 127.262 62.7129 127.215 62.5898C127.168 62.4668 127.098 62.3643 127.004 62.2822C126.928 62.2061 126.831 62.1475 126.714 62.1064C126.597 62.0596 126.462 62.0361 126.31 62.0361C126.157 62.0361 126.02 62.0596 125.896 62.1064C125.779 62.1475 125.683 62.2061 125.606 62.2822C125.513 62.3701 125.442 62.4756 125.396 62.5986C125.354 62.7217 125.334 62.8535 125.334 62.9941ZM132.559 70.166V70.3506C132.559 71.0303 132.649 71.666 132.831 72.2578C133.013 72.8438 133.268 73.3535 133.596 73.7871C133.924 74.2207 134.319 74.5605 134.782 74.8066C135.251 75.0527 135.772 75.1758 136.347 75.1758C136.933 75.1758 137.445 75.0762 137.885 74.877C138.324 74.6777 138.702 74.3848 139.019 73.998L139.089 75H140.583V61.5H138.957V66.4307C138.646 66.0674 138.277 65.792 137.85 65.6045C137.428 65.4111 136.933 65.3145 136.364 65.3145C135.784 65.3145 135.26 65.4346 134.791 65.6748C134.322 65.915 133.924 66.249 133.596 66.6768C133.262 67.1045 133.004 67.6172 132.822 68.2148C132.646 68.8066 132.559 69.457 132.559 70.166ZM134.185 70.3506V70.166C134.185 69.7031 134.234 69.2637 134.334 68.8477C134.434 68.4258 134.589 68.0537 134.8 67.7314C135.005 67.415 135.269 67.1631 135.591 66.9756C135.919 66.7881 136.312 66.6943 136.769 66.6943C137.302 66.6943 137.747 66.8203 138.104 67.0723C138.462 67.3184 138.746 67.6348 138.957 68.0215V72.4336C138.746 72.8496 138.462 73.1807 138.104 73.4268C137.747 73.6729 137.296 73.7959 136.751 73.7959C136.3 73.7959 135.913 73.7051 135.591 73.5234C135.269 73.3359 135.005 73.084 134.8 72.7676C134.589 72.4512 134.434 72.085 134.334 71.6689C134.234 71.2529 134.185 70.8135 134.185 70.3506Z" fill="white"/>
<rect x="17" y="101" width="153" height="36" rx="5" fill="black"/>
<path d="M28.8125 124.857C28.3027 124.857 27.875 124.758 27.5293 124.559C27.1895 124.354 26.917 124.087 26.7119 123.759C26.501 123.437 26.3486 123.073 26.2549 122.669C26.167 122.259 26.123 121.846 26.123 121.43V121.061C26.123 120.65 26.167 120.243 26.2549 119.839C26.3486 119.435 26.501 119.068 26.7119 118.74C26.9229 118.418 27.1982 118.157 27.5381 117.958C27.8838 117.753 28.3086 117.65 28.8125 117.65C29.1406 117.65 29.4453 117.706 29.7266 117.817C30.0137 117.929 30.2598 118.081 30.4648 118.274C30.6699 118.468 30.8311 118.693 30.9482 118.951C31.0713 119.203 31.1357 119.473 31.1416 119.76H32.6797C32.6797 119.279 32.583 118.828 32.3896 118.406C32.1963 117.984 31.9297 117.618 31.5898 117.308C31.2441 117.003 30.834 116.763 30.3594 116.587C29.8906 116.405 29.375 116.314 28.8125 116.314C28.0918 116.314 27.4619 116.443 26.9229 116.701C26.3838 116.959 25.9355 117.305 25.5781 117.738C25.2148 118.178 24.9424 118.685 24.7607 119.259C24.5791 119.833 24.4883 120.434 24.4883 121.061V121.43C24.4883 122.062 24.5791 122.666 24.7607 123.24C24.9424 123.809 25.2148 124.31 25.5781 124.743C25.9355 125.183 26.3838 125.531 26.9229 125.789C27.4619 126.047 28.0918 126.176 28.8125 126.176C29.3164 126.176 29.7998 126.091 30.2627 125.921C30.7256 125.745 31.1357 125.511 31.4932 125.218C31.8506 124.931 32.1348 124.597 32.3457 124.216C32.5625 123.829 32.6738 123.425 32.6797 123.003H31.1416C31.1357 123.267 31.0654 123.513 30.9307 123.741C30.8018 123.964 30.6289 124.157 30.4121 124.321C30.1953 124.491 29.9463 124.623 29.665 124.717C29.3896 124.811 29.1055 124.857 28.8125 124.857ZM35.8262 112.5V113.915H39.0605V124.594H35.8262V126H43.7891V124.594H40.6865V112.5H35.8262ZM46.6367 116.49V117.905H49.8711V124.594H46.6367V126H54.5996V124.594H51.4971V116.49H46.6367ZM49.6602 113.994C49.6602 114.258 49.7393 114.478 49.8975 114.653C50.0615 114.829 50.3076 114.917 50.6357 114.917C50.958 114.917 51.2012 114.829 51.3652 114.653C51.5293 114.478 51.6113 114.258 51.6113 113.994C51.6113 113.848 51.5879 113.713 51.541 113.59C51.4941 113.467 51.4238 113.364 51.3301 113.282C51.2539 113.206 51.1572 113.147 51.04 113.106C50.9229 113.06 50.7881 113.036 50.6357 113.036C50.4834 113.036 50.3457 113.06 50.2227 113.106C50.1055 113.147 50.0088 113.206 49.9326 113.282C49.8389 113.37 49.7686 113.476 49.7217 113.599C49.6807 113.722 49.6602 113.854 49.6602 113.994ZM61.3936 126.176C62.3193 126.176 63.0957 125.991 63.7227 125.622C64.3555 125.247 64.8301 124.819 65.1465 124.339L64.1533 123.565C63.8545 123.952 63.4795 124.263 63.0283 124.497C62.5771 124.731 62.0615 124.849 61.4814 124.849C61.042 124.849 60.6406 124.767 60.2773 124.603C59.9141 124.438 59.6035 124.213 59.3457 123.926C59.0938 123.656 58.8945 123.346 58.748 122.994C58.6074 122.643 58.5166 122.235 58.4756 121.772V121.711H65.2695V120.981C65.2695 120.319 65.1846 119.704 65.0146 119.136C64.8506 118.567 64.5986 118.072 64.2588 117.65C63.9189 117.234 63.4912 116.909 62.9756 116.675C62.4658 116.435 61.8682 116.314 61.1826 116.314C60.6377 116.314 60.1045 116.426 59.583 116.648C59.0674 116.871 58.6074 117.19 58.2031 117.606C57.793 118.028 57.4648 118.544 57.2188 119.153C56.9727 119.757 56.8496 120.442 56.8496 121.21V121.579C56.8496 122.241 56.9609 122.854 57.1836 123.416C57.4062 123.979 57.7168 124.465 58.1152 124.875C58.5137 125.285 58.9912 125.604 59.5479 125.833C60.1104 126.062 60.7256 126.176 61.3936 126.176ZM61.1826 117.65C61.5986 117.65 61.9561 117.727 62.2549 117.879C62.5596 118.031 62.8115 118.23 63.0107 118.477C63.21 118.723 63.3652 119.016 63.4766 119.355C63.5879 119.689 63.6436 120.003 63.6436 120.296V120.375H58.5283C58.5928 119.936 58.7041 119.549 58.8623 119.215C59.0264 118.875 59.2256 118.588 59.46 118.354C59.6943 118.125 59.958 117.952 60.251 117.835C60.5439 117.712 60.8545 117.65 61.1826 117.65ZM68.0029 126H69.6289V119.18C69.7402 118.975 69.8691 118.787 70.0156 118.617C70.168 118.447 70.332 118.298 70.5078 118.169C70.7246 118.022 70.9619 117.908 71.2197 117.826C71.4775 117.738 71.7559 117.694 72.0547 117.694C72.4004 117.694 72.7051 117.735 72.9688 117.817C73.2383 117.899 73.4668 118.031 73.6543 118.213C73.8359 118.395 73.9736 118.632 74.0674 118.925C74.1611 119.218 74.208 119.575 74.208 119.997V126H75.834V119.962C75.834 119.329 75.7549 118.784 75.5967 118.327C75.4443 117.864 75.2246 117.483 74.9375 117.185C74.6504 116.886 74.3018 116.666 73.8916 116.525C73.4873 116.385 73.0361 116.314 72.5381 116.314C72.1689 116.32 71.8174 116.376 71.4834 116.481C71.1553 116.581 70.8506 116.725 70.5693 116.912C70.3818 117.035 70.2031 117.182 70.0332 117.352C69.8691 117.516 69.7168 117.697 69.5762 117.896L69.4619 116.49H68.0029V126ZM82.6631 114.188H81.0283V116.49H78.5322V117.747H81.0283V122.915C81.0283 123.501 81.1045 124.002 81.2568 124.418C81.415 124.828 81.6289 125.162 81.8984 125.42C82.168 125.684 82.4844 125.877 82.8477 126C83.2168 126.117 83.6123 126.176 84.0342 126.176C84.2861 126.176 84.5381 126.164 84.79 126.141C85.0479 126.117 85.291 126.082 85.5195 126.035C85.748 125.994 85.959 125.944 86.1523 125.886C86.3457 125.821 86.5098 125.748 86.6445 125.666L86.416 124.515C86.3164 124.538 86.1875 124.567 86.0293 124.603C85.877 124.632 85.7129 124.661 85.5371 124.69C85.3555 124.72 85.1709 124.746 84.9834 124.77C84.7959 124.787 84.6143 124.796 84.4385 124.796C84.1982 124.796 83.9697 124.767 83.7529 124.708C83.542 124.649 83.3545 124.547 83.1904 124.4C83.0264 124.26 82.8975 124.069 82.8037 123.829C82.71 123.589 82.6631 123.284 82.6631 122.915V117.747H86.2842V116.49H82.6631V114.188ZM97.5166 127.327V126H89.457V127.327H97.5166ZM106.754 123.478C106.754 123.63 106.725 123.773 106.666 123.908C106.607 124.043 106.522 124.166 106.411 124.277C106.229 124.459 105.978 124.603 105.655 124.708C105.333 124.808 104.955 124.857 104.521 124.857C104.246 124.857 103.968 124.828 103.687 124.77C103.405 124.711 103.15 124.611 102.922 124.471C102.688 124.33 102.491 124.146 102.333 123.917C102.181 123.688 102.093 123.407 102.069 123.073H100.443C100.443 123.478 100.534 123.867 100.716 124.242C100.903 124.617 101.173 124.945 101.524 125.227C101.87 125.514 102.295 125.745 102.799 125.921C103.303 126.091 103.877 126.176 104.521 126.176C105.084 126.176 105.603 126.108 106.077 125.974C106.552 125.839 106.959 125.648 107.299 125.402C107.639 125.156 107.902 124.86 108.09 124.515C108.283 124.169 108.38 123.785 108.38 123.363C108.38 122.971 108.295 122.625 108.125 122.326C107.961 122.027 107.721 121.764 107.404 121.535C107.088 121.312 106.698 121.122 106.235 120.964C105.772 120.8 105.248 120.656 104.662 120.533C104.217 120.445 103.848 120.354 103.555 120.261C103.268 120.167 103.039 120.062 102.869 119.944C102.693 119.827 102.57 119.695 102.5 119.549C102.43 119.402 102.395 119.235 102.395 119.048C102.395 118.866 102.438 118.69 102.526 118.521C102.614 118.351 102.746 118.201 102.922 118.072C103.092 117.943 103.306 117.841 103.563 117.765C103.827 117.688 104.132 117.65 104.478 117.65C104.812 117.65 105.11 117.697 105.374 117.791C105.644 117.885 105.872 118.008 106.06 118.16C106.247 118.312 106.394 118.488 106.499 118.688C106.604 118.881 106.657 119.08 106.657 119.285H108.283C108.283 118.869 108.192 118.482 108.011 118.125C107.835 117.762 107.583 117.445 107.255 117.176C106.927 116.906 106.528 116.695 106.06 116.543C105.591 116.391 105.063 116.314 104.478 116.314C103.933 116.314 103.432 116.388 102.975 116.534C102.523 116.681 102.134 116.88 101.806 117.132C101.478 117.384 101.223 117.68 101.041 118.02C100.859 118.354 100.769 118.714 100.769 119.101C100.769 119.493 100.856 119.839 101.032 120.138C101.208 120.431 101.457 120.686 101.779 120.902C102.096 121.125 102.477 121.315 102.922 121.474C103.373 121.632 103.871 121.767 104.416 121.878C104.861 121.966 105.233 122.065 105.532 122.177C105.831 122.282 106.071 122.399 106.253 122.528C106.435 122.657 106.563 122.801 106.64 122.959C106.716 123.111 106.754 123.284 106.754 123.478ZM115.446 126.176C116.372 126.176 117.148 125.991 117.775 125.622C118.408 125.247 118.883 124.819 119.199 124.339L118.206 123.565C117.907 123.952 117.532 124.263 117.081 124.497C116.63 124.731 116.114 124.849 115.534 124.849C115.095 124.849 114.693 124.767 114.33 124.603C113.967 124.438 113.656 124.213 113.398 123.926C113.146 123.656 112.947 123.346 112.801 122.994C112.66 122.643 112.569 122.235 112.528 121.772V121.711H119.322V120.981C119.322 120.319 119.237 119.704 119.067 119.136C118.903 118.567 118.651 118.072 118.312 117.65C117.972 117.234 117.544 116.909 117.028 116.675C116.519 116.435 115.921 116.314 115.235 116.314C114.69 116.314 114.157 116.426 113.636 116.648C113.12 116.871 112.66 117.19 112.256 117.606C111.846 118.028 111.518 118.544 111.271 119.153C111.025 119.757 110.902 120.442 110.902 121.21V121.579C110.902 122.241 111.014 122.854 111.236 123.416C111.459 123.979 111.77 124.465 112.168 124.875C112.566 125.285 113.044 125.604 113.601 125.833C114.163 126.062 114.778 126.176 115.446 126.176ZM115.235 117.65C115.651 117.65 116.009 117.727 116.308 117.879C116.612 118.031 116.864 118.23 117.063 118.477C117.263 118.723 117.418 119.016 117.529 119.355C117.641 119.689 117.696 120.003 117.696 120.296V120.375H112.581C112.646 119.936 112.757 119.549 112.915 119.215C113.079 118.875 113.278 118.588 113.513 118.354C113.747 118.125 114.011 117.952 114.304 117.835C114.597 117.712 114.907 117.65 115.235 117.65ZM126.107 124.857C125.598 124.857 125.17 124.758 124.824 124.559C124.484 124.354 124.212 124.087 124.007 123.759C123.796 123.437 123.644 123.073 123.55 122.669C123.462 122.259 123.418 121.846 123.418 121.43V121.061C123.418 120.65 123.462 120.243 123.55 119.839C123.644 119.435 123.796 119.068 124.007 118.74C124.218 118.418 124.493 118.157 124.833 117.958C125.179 117.753 125.604 117.65 126.107 117.65C126.436 117.65 126.74 117.706 127.021 117.817C127.309 117.929 127.555 118.081 127.76 118.274C127.965 118.468 128.126 118.693 128.243 118.951C128.366 119.203 128.431 119.473 128.437 119.76H129.975C129.975 119.279 129.878 118.828 129.685 118.406C129.491 117.984 129.225 117.618 128.885 117.308C128.539 117.003 128.129 116.763 127.654 116.587C127.186 116.405 126.67 116.314 126.107 116.314C125.387 116.314 124.757 116.443 124.218 116.701C123.679 116.959 123.23 117.305 122.873 117.738C122.51 118.178 122.237 118.685 122.056 119.259C121.874 119.833 121.783 120.434 121.783 121.061V121.43C121.783 122.062 121.874 122.666 122.056 123.24C122.237 123.809 122.51 124.31 122.873 124.743C123.23 125.183 123.679 125.531 124.218 125.789C124.757 126.047 125.387 126.176 126.107 126.176C126.611 126.176 127.095 126.091 127.558 125.921C128.021 125.745 128.431 125.511 128.788 125.218C129.146 124.931 129.43 124.597 129.641 124.216C129.857 123.829 129.969 123.425 129.975 123.003H128.437C128.431 123.267 128.36 123.513 128.226 123.741C128.097 123.964 127.924 124.157 127.707 124.321C127.49 124.491 127.241 124.623 126.96 124.717C126.685 124.811 126.4 124.857 126.107 124.857ZM139.098 116.314C138.406 116.314 137.788 116.467 137.243 116.771C136.704 117.07 136.241 117.48 135.854 118.002L135.846 117.765L135.775 116.49H134.229V126H135.863V119.9C135.969 119.607 136.101 119.344 136.259 119.109C136.423 118.869 136.613 118.667 136.83 118.503C137.07 118.315 137.352 118.175 137.674 118.081C137.996 117.981 138.356 117.932 138.755 117.932C139.065 117.932 139.361 117.949 139.643 117.984C139.93 118.014 140.231 118.063 140.548 118.134L140.768 116.543C140.604 116.473 140.357 116.417 140.029 116.376C139.707 116.335 139.396 116.314 139.098 116.314ZM147.878 126.176C148.804 126.176 149.58 125.991 150.207 125.622C150.84 125.247 151.314 124.819 151.631 124.339L150.638 123.565C150.339 123.952 149.964 124.263 149.513 124.497C149.062 124.731 148.546 124.849 147.966 124.849C147.526 124.849 147.125 124.767 146.762 124.603C146.398 124.438 146.088 124.213 145.83 123.926C145.578 123.656 145.379 123.346 145.232 122.994C145.092 122.643 145.001 122.235 144.96 121.772V121.711H151.754V120.981C151.754 120.319 151.669 119.704 151.499 119.136C151.335 118.567 151.083 118.072 150.743 117.65C150.403 117.234 149.976 116.909 149.46 116.675C148.95 116.435 148.353 116.314 147.667 116.314C147.122 116.314 146.589 116.426 146.067 116.648C145.552 116.871 145.092 117.19 144.688 117.606C144.277 118.028 143.949 118.544 143.703 119.153C143.457 119.757 143.334 120.442 143.334 121.21V121.579C143.334 122.241 143.445 122.854 143.668 123.416C143.891 123.979 144.201 124.465 144.6 124.875C144.998 125.285 145.476 125.604 146.032 125.833C146.595 126.062 147.21 126.176 147.878 126.176ZM147.667 117.65C148.083 117.65 148.44 117.727 148.739 117.879C149.044 118.031 149.296 118.23 149.495 118.477C149.694 118.723 149.85 119.016 149.961 119.355C150.072 119.689 150.128 120.003 150.128 120.296V120.375H145.013C145.077 119.936 145.188 119.549 145.347 119.215C145.511 118.875 145.71 118.588 145.944 118.354C146.179 118.125 146.442 117.952 146.735 117.835C147.028 117.712 147.339 117.65 147.667 117.65ZM158.337 114.188H156.702V116.49H154.206V117.747H156.702V122.915C156.702 123.501 156.778 124.002 156.931 124.418C157.089 124.828 157.303 125.162 157.572 125.42C157.842 125.684 158.158 125.877 158.521 126C158.891 126.117 159.286 126.176 159.708 126.176C159.96 126.176 160.212 126.164 160.464 126.141C160.722 126.117 160.965 126.082 161.193 126.035C161.422 125.994 161.633 125.944 161.826 125.886C162.02 125.821 162.184 125.748 162.318 125.666L162.09 124.515C161.99 124.538 161.861 124.567 161.703 124.603C161.551 124.632 161.387 124.661 161.211 124.69C161.029 124.72 160.845 124.746 160.657 124.77C160.47 124.787 160.288 124.796 160.112 124.796C159.872 124.796 159.644 124.767 159.427 124.708C159.216 124.649 159.028 124.547 158.864 124.4C158.7 124.26 158.571 124.069 158.478 123.829C158.384 123.589 158.337 123.284 158.337 122.915V117.747H161.958V116.49H158.337V114.188Z" fill="white"/>
</svg>
