<svg width="150" height="150" viewBox="0 0 150 150" fill="none" xmlns="http://www.w3.org/2000/svg">
<circle cx="75" cy="75" r="75" fill="#25A979"/>
<ellipse cx="75.5" cy="73" rx="46.5" ry="47" fill="black"/>
<path d="M55.7721 85.3348L55.0217 90.5809C54.9263 91.2422 55.1489 91.9078 55.6194 92.3804C56.09 92.8531 56.7577 93.0736 57.419 92.9782L62.6651 92.2278C63.4599 92.1155 65.4524 86.7656 65.4524 86.7656C65.4524 86.7656 66.4529 87.624 66.8619 87.7533C67.7352 88.0289 68.5852 87.1725 68.8713 86.3035L69.6916 82.5475C69.6916 82.5475 70.9147 83.1664 71.3577 83.2576C71.9215 83.3742 72.4684 83.0266 72.8562 82.6365C73.083 82.4097 73.2611 82.13 73.3671 81.8078L73.9309 78.3083C73.9309 78.3083 75.3616 78.7046 75.8513 78.7619C76.4087 78.8255 76.9514 78.5414 77.3499 78.1408L79.762 75.7308C83.7914 77.028 88.3952 76.0912 91.5916 72.8948C96.1361 68.3482 96.1361 60.9528 91.5916 56.4084C87.045 51.8639 79.6497 51.8639 75.1052 56.4084C71.9088 59.6047 70.9698 64.2064 72.2691 68.238L56.3698 84.1351C56.0455 84.4594 55.8356 84.8791 55.7721 85.3348ZM87.717 60.283C90.1249 62.6951 90.1249 66.6058 87.717 69.0201L78.9799 60.283C81.3941 57.8751 85.3048 57.8751 87.717 60.283Z" fill="white"/>
</svg>
