<svg width="250" height="26.42" viewBox="0 0 388 41" fill="none" xmlns="http://www.w3.org/2000/svg">
<rect width="44" height="40.6154" rx="5" fill="black"/>
<rect x="27.058" y="9.58974" width="8.41271" height="22.1387" fill="white"/>
<rect x="17.7597" y="18.4452" width="8.41271" height="13.2832" fill="white"/>
<rect x="8.46153" y="24.2013" width="8.41271" height="7.52716" fill="white"/>
<path d="M58.5622 27.72H67.5222V33H51.7222V4.92H58.5622V27.72ZM91.8247 21.48C91.8247 22.12 91.7847 22.7867 91.7047 23.48H76.2247C76.3314 24.8667 76.7714 25.9333 77.5447 26.68C78.3447 27.4 79.318 27.76 80.4647 27.76C82.1714 27.76 83.358 27.04 84.0247 25.6H91.3047C90.9314 27.0667 90.2514 28.3867 89.2647 29.56C88.3047 30.7333 87.0914 31.6533 85.6247 32.32C84.158 32.9867 82.518 33.32 80.7047 33.32C78.518 33.32 76.5714 32.8533 74.8647 31.92C73.158 30.9867 71.8247 29.6533 70.8647 27.92C69.9047 26.1867 69.4247 24.16 69.4247 21.84C69.4247 19.52 69.8914 17.4933 70.8247 15.76C71.7847 14.0267 73.118 12.6933 74.8247 11.76C76.5314 10.8267 78.4914 10.36 80.7047 10.36C82.8647 10.36 84.7847 10.8133 86.4647 11.72C88.1447 12.6267 89.4514 13.92 90.3847 15.6C91.3447 17.28 91.8247 19.24 91.8247 21.48ZM84.8247 19.68C84.8247 18.5067 84.4247 17.5733 83.6247 16.88C82.8247 16.1867 81.8247 15.84 80.6247 15.84C79.478 15.84 78.5047 16.1733 77.7047 16.84C76.9314 17.5067 76.4514 18.4533 76.2647 19.68H84.8247ZM94.0731 21.8C94.0731 19.5067 94.4998 17.4933 95.3531 15.76C96.2331 14.0267 97.4198 12.6933 98.9131 11.76C100.406 10.8267 102.073 10.36 103.913 10.36C105.486 10.36 106.86 10.68 108.033 11.32C109.233 11.96 110.153 12.8 110.793 13.84V10.68H117.633V33H110.793V29.84C110.126 30.88 109.193 31.72 107.993 32.36C106.82 33 105.446 33.32 103.873 33.32C102.06 33.32 100.406 32.8533 98.9131 31.92C97.4198 30.96 96.2331 29.6133 95.3531 27.88C94.4998 26.12 94.0731 24.0933 94.0731 21.8ZM110.793 21.84C110.793 20.1333 110.313 18.7867 109.353 17.8C108.42 16.8133 107.273 16.32 105.913 16.32C104.553 16.32 103.393 16.8133 102.433 17.8C101.5 18.76 101.033 20.0933 101.033 21.8C101.033 23.5067 101.5 24.8667 102.433 25.88C103.393 26.8667 104.553 27.36 105.913 27.36C107.273 27.36 108.42 26.8667 109.353 25.88C110.313 24.8933 110.793 23.5467 110.793 21.84ZM121.222 21.8C121.222 19.5067 121.648 17.4933 122.502 15.76C123.382 14.0267 124.568 12.6933 126.062 11.76C127.555 10.8267 129.222 10.36 131.062 10.36C132.528 10.36 133.862 10.6667 135.062 11.28C136.288 11.8933 137.248 12.72 137.942 13.76V3.4H144.782V33H137.942V29.8C137.302 30.8667 136.382 31.72 135.182 32.36C134.008 33 132.635 33.32 131.062 33.32C129.222 33.32 127.555 32.8533 126.062 31.92C124.568 30.96 123.382 29.6133 122.502 27.88C121.648 26.12 121.222 24.0933 121.222 21.8ZM137.942 21.84C137.942 20.1333 137.462 18.7867 136.502 17.8C135.568 16.8133 134.422 16.32 133.062 16.32C131.702 16.32 130.542 16.8133 129.582 17.8C128.648 18.76 128.182 20.0933 128.182 21.8C128.182 23.5067 128.648 24.8667 129.582 25.88C130.542 26.8667 131.702 27.36 133.062 27.36C134.422 27.36 135.568 26.8667 136.502 25.88C137.462 24.8933 137.942 23.5467 137.942 21.84ZM170.77 21.48C170.77 22.12 170.73 22.7867 170.65 23.48H155.17C155.277 24.8667 155.717 25.9333 156.49 26.68C157.29 27.4 158.263 27.76 159.41 27.76C161.117 27.76 162.303 27.04 162.97 25.6H170.25C169.877 27.0667 169.197 28.3867 168.21 29.56C167.25 30.7333 166.037 31.6533 164.57 32.32C163.103 32.9867 161.463 33.32 159.65 33.32C157.463 33.32 155.517 32.8533 153.81 31.92C152.103 30.9867 150.77 29.6533 149.81 27.92C148.85 26.1867 148.37 24.16 148.37 21.84C148.37 19.52 148.837 17.4933 149.77 15.76C150.73 14.0267 152.063 12.6933 153.77 11.76C155.477 10.8267 157.437 10.36 159.65 10.36C161.81 10.36 163.73 10.8133 165.41 11.72C167.09 12.6267 168.397 13.92 169.33 15.6C170.29 17.28 170.77 19.24 170.77 21.48ZM163.77 19.68C163.77 18.5067 163.37 17.5733 162.57 16.88C161.77 16.1867 160.77 15.84 159.57 15.84C158.423 15.84 157.45 16.1733 156.65 16.84C155.877 17.5067 155.397 18.4533 155.21 19.68H163.77ZM181.218 14.4C182.018 13.1733 183.018 12.2133 184.218 11.52C185.418 10.8 186.752 10.44 188.218 10.44V17.68H186.338C184.632 17.68 183.352 18.0533 182.498 18.8C181.645 19.52 181.218 20.8 181.218 22.64V33H174.378V10.68H181.218V14.4ZM198.328 13.84C198.968 12.8 199.888 11.96 201.088 11.32C202.288 10.68 203.661 10.36 205.208 10.36C207.048 10.36 208.714 10.8267 210.208 11.76C211.701 12.6933 212.874 14.0267 213.728 15.76C214.608 17.4933 215.048 19.5067 215.048 21.8C215.048 24.0933 214.608 26.12 213.728 27.88C212.874 29.6133 211.701 30.96 210.208 31.92C208.714 32.8533 207.048 33.32 205.208 33.32C203.634 33.32 202.261 33.0133 201.088 32.4C199.914 31.76 198.994 30.92 198.328 29.88V33H191.488V3.4H198.328V13.84ZM208.088 21.8C208.088 20.0933 207.608 18.76 206.648 17.8C205.714 16.8133 204.554 16.32 203.168 16.32C201.808 16.32 200.648 16.8133 199.688 17.8C198.754 18.7867 198.288 20.1333 198.288 21.84C198.288 23.5467 198.754 24.8933 199.688 25.88C200.648 26.8667 201.808 27.36 203.168 27.36C204.528 27.36 205.688 26.8667 206.648 25.88C207.608 24.8667 208.088 23.5067 208.088 21.8ZM228.796 33.32C226.61 33.32 224.636 32.8533 222.876 31.92C221.143 30.9867 219.77 29.6533 218.756 27.92C217.77 26.1867 217.276 24.16 217.276 21.84C217.276 19.5467 217.783 17.5333 218.796 15.8C219.81 14.04 221.196 12.6933 222.956 11.76C224.716 10.8267 226.69 10.36 228.876 10.36C231.063 10.36 233.036 10.8267 234.796 11.76C236.556 12.6933 237.943 14.04 238.956 15.8C239.97 17.5333 240.476 19.5467 240.476 21.84C240.476 24.1333 239.956 26.16 238.916 27.92C237.903 29.6533 236.503 30.9867 234.716 31.92C232.956 32.8533 230.983 33.32 228.796 33.32ZM228.796 27.4C230.103 27.4 231.21 26.92 232.116 25.96C233.05 25 233.516 23.6267 233.516 21.84C233.516 20.0533 233.063 18.68 232.156 17.72C231.276 16.76 230.183 16.28 228.876 16.28C227.543 16.28 226.436 16.76 225.556 17.72C224.676 18.6533 224.236 20.0267 224.236 21.84C224.236 23.6267 224.663 25 225.516 25.96C226.396 26.92 227.49 27.4 228.796 27.4ZM242.745 21.8C242.745 19.5067 243.172 17.4933 244.025 15.76C244.905 14.0267 246.092 12.6933 247.585 11.76C249.078 10.8267 250.745 10.36 252.585 10.36C254.158 10.36 255.532 10.68 256.705 11.32C257.905 11.96 258.825 12.8 259.465 13.84V10.68H266.305V33H259.465V29.84C258.798 30.88 257.865 31.72 256.665 32.36C255.492 33 254.118 33.32 252.545 33.32C250.732 33.32 249.078 32.8533 247.585 31.92C246.092 30.96 244.905 29.6133 244.025 27.88C243.172 26.12 242.745 24.0933 242.745 21.8ZM259.465 21.84C259.465 20.1333 258.985 18.7867 258.025 17.8C257.092 16.8133 255.945 16.32 254.585 16.32C253.225 16.32 252.065 16.8133 251.105 17.8C250.172 18.76 249.705 20.0933 249.705 21.8C249.705 23.5067 250.172 24.8667 251.105 25.88C252.065 26.8667 253.225 27.36 254.585 27.36C255.945 27.36 257.092 26.8667 258.025 25.88C258.985 24.8933 259.465 23.5467 259.465 21.84ZM278.093 14.4C278.893 13.1733 279.893 12.2133 281.093 11.52C282.293 10.8 283.627 10.44 285.093 10.44V17.68H283.213C281.507 17.68 280.227 18.0533 279.373 18.8C278.52 19.52 278.093 20.8 278.093 22.64V33H271.253V10.68H278.093V14.4ZM287.003 21.8C287.003 19.5067 287.429 17.4933 288.283 15.76C289.163 14.0267 290.349 12.6933 291.843 11.76C293.336 10.8267 295.003 10.36 296.843 10.36C298.309 10.36 299.643 10.6667 300.843 11.28C302.069 11.8933 303.029 12.72 303.723 13.76V3.4H310.563V33H303.723V29.8C303.083 30.8667 302.163 31.72 300.963 32.36C299.789 33 298.416 33.32 296.843 33.32C295.003 33.32 293.336 32.8533 291.843 31.92C290.349 30.96 289.163 29.6133 288.283 27.88C287.429 26.12 287.003 24.0933 287.003 21.8ZM303.723 21.84C303.723 20.1333 303.243 18.7867 302.283 17.8C301.349 16.8133 300.203 16.32 298.843 16.32C297.483 16.32 296.323 16.8133 295.363 17.8C294.429 18.76 293.963 20.0933 293.963 21.8C293.963 23.5067 294.429 24.8667 295.363 25.88C296.323 26.8667 297.483 27.36 298.843 27.36C300.203 27.36 301.349 26.8667 302.283 25.88C303.243 24.8933 303.723 23.5467 303.723 21.84Z" fill="white"/>
<path d="M341.468 28.04H330.988L329.308 33H322.148L332.308 4.92H340.228L350.388 33H343.148L341.468 28.04ZM339.708 22.76L336.228 12.48L332.788 22.76H339.708ZM374.88 13.96C374.88 15.5867 374.507 17.08 373.76 18.44C373.013 19.7733 371.867 20.8533 370.32 21.68C368.773 22.5067 366.853 22.92 364.56 22.92H360.32V33H353.48V4.92H364.56C366.8 4.92 368.693 5.30667 370.24 6.08C371.787 6.85333 372.947 7.92 373.72 9.28C374.493 10.64 374.88 12.2 374.88 13.96ZM364.04 17.48C365.347 17.48 366.32 17.1733 366.96 16.56C367.6 15.9467 367.92 15.08 367.92 13.96C367.92 12.84 367.6 11.9733 366.96 11.36C366.32 10.7467 365.347 10.44 364.04 10.44H360.32V17.48H364.04ZM385.281 4.92V33H378.441V4.92H385.281Z" fill="black"/>
</svg>
