<svg width="250" height="43.97" viewBox="0 0 398 70" fill="none" xmlns="http://www.w3.org/2000/svg">
<rect y="15" width="44" height="40.6154" rx="5" fill="black"/>
<rect x="27.058" y="24.5897" width="8.41271" height="22.1387" fill="white"/>
<rect x="17.7597" y="33.4452" width="8.41271" height="13.2832" fill="white"/>
<rect x="8.46153" y="39.2013" width="8.41271" height="7.52716" fill="white"/>
<path d="M64.0622 43.72H73.0222V49H57.2222V20.92H64.0622V43.72ZM97.3247 37.48C97.3247 38.12 97.2847 38.7867 97.2047 39.48H81.7247C81.8314 40.8667 82.2714 41.9333 83.0447 42.68C83.8447 43.4 84.818 43.76 85.9647 43.76C87.6714 43.76 88.858 43.04 89.5247 41.6H96.8047C96.4314 43.0667 95.7514 44.3867 94.7647 45.56C93.8047 46.7333 92.5914 47.6533 91.1247 48.32C89.658 48.9867 88.018 49.32 86.2047 49.32C84.018 49.32 82.0714 48.8533 80.3647 47.92C78.658 46.9867 77.3247 45.6533 76.3647 43.92C75.4047 42.1867 74.9247 40.16 74.9247 37.84C74.9247 35.52 75.3914 33.4933 76.3247 31.76C77.2847 30.0267 78.618 28.6933 80.3247 27.76C82.0314 26.8267 83.9914 26.36 86.2047 26.36C88.3647 26.36 90.2847 26.8133 91.9647 27.72C93.6447 28.6267 94.9514 29.92 95.8847 31.6C96.8447 33.28 97.3247 35.24 97.3247 37.48ZM90.3247 35.68C90.3247 34.5067 89.9247 33.5733 89.1247 32.88C88.3247 32.1867 87.3247 31.84 86.1247 31.84C84.978 31.84 84.0047 32.1733 83.2047 32.84C82.4314 33.5067 81.9514 34.4533 81.7647 35.68H90.3247ZM99.5731 37.8C99.5731 35.5067 99.9998 33.4933 100.853 31.76C101.733 30.0267 102.92 28.6933 104.413 27.76C105.906 26.8267 107.573 26.36 109.413 26.36C110.986 26.36 112.36 26.68 113.533 27.32C114.733 27.96 115.653 28.8 116.293 29.84V26.68H123.133V49H116.293V45.84C115.626 46.88 114.693 47.72 113.493 48.36C112.32 49 110.946 49.32 109.373 49.32C107.56 49.32 105.906 48.8533 104.413 47.92C102.92 46.96 101.733 45.6133 100.853 43.88C99.9998 42.12 99.5731 40.0933 99.5731 37.8ZM116.293 37.84C116.293 36.1333 115.813 34.7867 114.853 33.8C113.92 32.8133 112.773 32.32 111.413 32.32C110.053 32.32 108.893 32.8133 107.933 33.8C107 34.76 106.533 36.0933 106.533 37.8C106.533 39.5067 107 40.8667 107.933 41.88C108.893 42.8667 110.053 43.36 111.413 43.36C112.773 43.36 113.92 42.8667 114.853 41.88C115.813 40.8933 116.293 39.5467 116.293 37.84ZM126.722 37.8C126.722 35.5067 127.148 33.4933 128.002 31.76C128.882 30.0267 130.068 28.6933 131.562 27.76C133.055 26.8267 134.722 26.36 136.562 26.36C138.028 26.36 139.362 26.6667 140.562 27.28C141.788 27.8933 142.748 28.72 143.442 29.76V19.4H150.282V49H143.442V45.8C142.802 46.8667 141.882 47.72 140.682 48.36C139.508 49 138.135 49.32 136.562 49.32C134.722 49.32 133.055 48.8533 131.562 47.92C130.068 46.96 128.882 45.6133 128.002 43.88C127.148 42.12 126.722 40.0933 126.722 37.8ZM143.442 37.84C143.442 36.1333 142.962 34.7867 142.002 33.8C141.068 32.8133 139.922 32.32 138.562 32.32C137.202 32.32 136.042 32.8133 135.082 33.8C134.148 34.76 133.682 36.0933 133.682 37.8C133.682 39.5067 134.148 40.8667 135.082 41.88C136.042 42.8667 137.202 43.36 138.562 43.36C139.922 43.36 141.068 42.8667 142.002 41.88C142.962 40.8933 143.442 39.5467 143.442 37.84ZM176.27 37.48C176.27 38.12 176.23 38.7867 176.15 39.48H160.67C160.777 40.8667 161.217 41.9333 161.99 42.68C162.79 43.4 163.763 43.76 164.91 43.76C166.617 43.76 167.803 43.04 168.47 41.6H175.75C175.377 43.0667 174.697 44.3867 173.71 45.56C172.75 46.7333 171.537 47.6533 170.07 48.32C168.603 48.9867 166.963 49.32 165.15 49.32C162.963 49.32 161.017 48.8533 159.31 47.92C157.603 46.9867 156.27 45.6533 155.31 43.92C154.35 42.1867 153.87 40.16 153.87 37.84C153.87 35.52 154.337 33.4933 155.27 31.76C156.23 30.0267 157.563 28.6933 159.27 27.76C160.977 26.8267 162.937 26.36 165.15 26.36C167.31 26.36 169.23 26.8133 170.91 27.72C172.59 28.6267 173.897 29.92 174.83 31.6C175.79 33.28 176.27 35.24 176.27 37.48ZM169.27 35.68C169.27 34.5067 168.87 33.5733 168.07 32.88C167.27 32.1867 166.27 31.84 165.07 31.84C163.923 31.84 162.95 32.1733 162.15 32.84C161.377 33.5067 160.897 34.4533 160.71 35.68H169.27ZM186.718 30.4C187.518 29.1733 188.518 28.2133 189.718 27.52C190.918 26.8 192.252 26.44 193.718 26.44V33.68H191.838C190.132 33.68 188.852 34.0533 187.998 34.8C187.145 35.52 186.718 36.8 186.718 38.64V49H179.878V26.68H186.718V30.4ZM203.828 29.84C204.468 28.8 205.388 27.96 206.588 27.32C207.788 26.68 209.161 26.36 210.708 26.36C212.548 26.36 214.214 26.8267 215.708 27.76C217.201 28.6933 218.374 30.0267 219.228 31.76C220.108 33.4933 220.548 35.5067 220.548 37.8C220.548 40.0933 220.108 42.12 219.228 43.88C218.374 45.6133 217.201 46.96 215.708 47.92C214.214 48.8533 212.548 49.32 210.708 49.32C209.134 49.32 207.761 49.0133 206.588 48.4C205.414 47.76 204.494 46.92 203.828 45.88V49H196.988V19.4H203.828V29.84ZM213.588 37.8C213.588 36.0933 213.108 34.76 212.148 33.8C211.214 32.8133 210.054 32.32 208.668 32.32C207.308 32.32 206.148 32.8133 205.188 33.8C204.254 34.7867 203.788 36.1333 203.788 37.84C203.788 39.5467 204.254 40.8933 205.188 41.88C206.148 42.8667 207.308 43.36 208.668 43.36C210.028 43.36 211.188 42.8667 212.148 41.88C213.108 40.8667 213.588 39.5067 213.588 37.8ZM234.296 49.32C232.11 49.32 230.136 48.8533 228.376 47.92C226.643 46.9867 225.27 45.6533 224.256 43.92C223.27 42.1867 222.776 40.16 222.776 37.84C222.776 35.5467 223.283 33.5333 224.296 31.8C225.31 30.04 226.696 28.6933 228.456 27.76C230.216 26.8267 232.19 26.36 234.376 26.36C236.563 26.36 238.536 26.8267 240.296 27.76C242.056 28.6933 243.443 30.04 244.456 31.8C245.47 33.5333 245.976 35.5467 245.976 37.84C245.976 40.1333 245.456 42.16 244.416 43.92C243.403 45.6533 242.003 46.9867 240.216 47.92C238.456 48.8533 236.483 49.32 234.296 49.32ZM234.296 43.4C235.603 43.4 236.71 42.92 237.616 41.96C238.55 41 239.016 39.6267 239.016 37.84C239.016 36.0533 238.563 34.68 237.656 33.72C236.776 32.76 235.683 32.28 234.376 32.28C233.043 32.28 231.936 32.76 231.056 33.72C230.176 34.6533 229.736 36.0267 229.736 37.84C229.736 39.6267 230.163 41 231.016 41.96C231.896 42.92 232.99 43.4 234.296 43.4ZM248.245 37.8C248.245 35.5067 248.672 33.4933 249.525 31.76C250.405 30.0267 251.592 28.6933 253.085 27.76C254.578 26.8267 256.245 26.36 258.085 26.36C259.658 26.36 261.032 26.68 262.205 27.32C263.405 27.96 264.325 28.8 264.965 29.84V26.68H271.805V49H264.965V45.84C264.298 46.88 263.365 47.72 262.165 48.36C260.992 49 259.618 49.32 258.045 49.32C256.232 49.32 254.578 48.8533 253.085 47.92C251.592 46.96 250.405 45.6133 249.525 43.88C248.672 42.12 248.245 40.0933 248.245 37.8ZM264.965 37.84C264.965 36.1333 264.485 34.7867 263.525 33.8C262.592 32.8133 261.445 32.32 260.085 32.32C258.725 32.32 257.565 32.8133 256.605 33.8C255.672 34.76 255.205 36.0933 255.205 37.8C255.205 39.5067 255.672 40.8667 256.605 41.88C257.565 42.8667 258.725 43.36 260.085 43.36C261.445 43.36 262.592 42.8667 263.525 41.88C264.485 40.8933 264.965 39.5467 264.965 37.84ZM283.593 30.4C284.393 29.1733 285.393 28.2133 286.593 27.52C287.793 26.8 289.127 26.44 290.593 26.44V33.68H288.713C287.007 33.68 285.727 34.0533 284.873 34.8C284.02 35.52 283.593 36.8 283.593 38.64V49H276.753V26.68H283.593V30.4ZM292.503 37.8C292.503 35.5067 292.929 33.4933 293.783 31.76C294.663 30.0267 295.849 28.6933 297.343 27.76C298.836 26.8267 300.503 26.36 302.343 26.36C303.809 26.36 305.143 26.6667 306.343 27.28C307.569 27.8933 308.529 28.72 309.223 29.76V19.4H316.063V49H309.223V45.8C308.583 46.8667 307.663 47.72 306.463 48.36C305.289 49 303.916 49.32 302.343 49.32C300.503 49.32 298.836 48.8533 297.343 47.92C295.849 46.96 294.663 45.6133 293.783 43.88C292.929 42.12 292.503 40.0933 292.503 37.8ZM309.223 37.84C309.223 36.1333 308.743 34.7867 307.783 33.8C306.849 32.8133 305.703 32.32 304.343 32.32C302.983 32.32 301.823 32.8133 300.863 33.8C299.929 34.76 299.463 36.0933 299.463 37.8C299.463 39.5067 299.929 40.8667 300.863 41.88C301.823 42.8667 302.983 43.36 304.343 43.36C305.703 43.36 306.849 42.8667 307.783 41.88C308.743 40.8933 309.223 39.5467 309.223 37.84Z" fill="white"/>
<path d="M346.968 44.04H336.488L334.808 49H327.648L337.808 20.92H345.728L355.888 49H348.648L346.968 44.04ZM345.208 38.76L341.728 28.48L338.288 38.76H345.208ZM380.38 29.96C380.38 31.5867 380.007 33.08 379.26 34.44C378.513 35.7733 377.367 36.8533 375.82 37.68C374.273 38.5067 372.353 38.92 370.06 38.92H365.82V49H358.98V20.92H370.06C372.3 20.92 374.193 21.3067 375.74 22.08C377.287 22.8533 378.447 23.92 379.22 25.28C379.993 26.64 380.38 28.2 380.38 29.96ZM369.54 33.48C370.847 33.48 371.82 33.1733 372.46 32.56C373.1 31.9467 373.42 31.08 373.42 29.96C373.42 28.84 373.1 27.9733 372.46 27.36C371.82 26.7467 370.847 26.44 369.54 26.44H365.82V33.48H369.54ZM390.781 20.92V49H383.941V20.92H390.781Z" fill="black"/>
</svg>
