<svg width="150" height="150" viewBox="0 0 187 187" fill="none" xmlns="http://www.w3.org/2000/svg">
<circle cx="93.5" cy="93.5" r="93.5" fill="#25A979"/>
<rect x="15" y="68" width="157" height="52" rx="5" fill="black"/>
<path d="M63.8896 97.7656C63.8896 98.1172 63.8135 98.4219 63.6611 98.6797C63.5088 98.9316 63.3125 99.1396 63.0723 99.3037C62.832 99.4736 62.5566 99.5996 62.2461 99.6816C61.9414 99.7578 61.6309 99.7959 61.3145 99.7959C60.916 99.7959 60.5469 99.7432 60.207 99.6377C59.873 99.5264 59.5771 99.3623 59.3193 99.1455C59.0615 98.9346 58.8506 98.6768 58.6865 98.3721C58.5225 98.0615 58.4141 97.707 58.3613 97.3086H56.7002C56.7178 97.8594 56.8379 98.3604 57.0605 98.8115C57.2891 99.2568 57.5967 99.6465 57.9834 99.9805C58.417 100.367 58.9268 100.663 59.5127 100.868C60.1045 101.073 60.7051 101.176 61.3145 101.176C61.8242 101.176 62.334 101.105 62.8438 100.965C63.3535 100.818 63.8105 100.602 64.2148 100.314C64.6191 100.033 64.9473 99.6787 65.1992 99.251C65.457 98.8232 65.5859 98.3223 65.5859 97.748C65.5859 97.1797 65.4658 96.6787 65.2256 96.2451C64.9912 95.8115 64.6807 95.4453 64.2939 95.1465C63.9014 94.8242 63.4678 94.5605 62.9932 94.3555C62.5186 94.1445 62.0439 93.9658 61.5693 93.8193C61.2822 93.7314 60.9746 93.6289 60.6465 93.5117C60.3242 93.3945 60.0254 93.248 59.75 93.0723C59.4688 92.8965 59.2373 92.6826 59.0557 92.4307C58.874 92.1729 58.7803 91.8594 58.7744 91.4902C58.7744 91.1504 58.8418 90.8516 58.9766 90.5938C59.1172 90.3359 59.3047 90.1191 59.5391 89.9434C59.7676 89.7676 60.0283 89.6357 60.3213 89.5479C60.6201 89.46 60.9248 89.416 61.2354 89.416C61.6221 89.416 61.9678 89.4775 62.2725 89.6006C62.583 89.7178 62.8496 89.8848 63.0723 90.1016C63.2949 90.3184 63.4736 90.5791 63.6084 90.8838C63.7432 91.1826 63.834 91.5166 63.8809 91.8857H65.5508C65.5391 91.2998 65.4131 90.7695 65.1729 90.2949C64.9326 89.8203 64.6133 89.416 64.2148 89.082C63.8164 88.748 63.3594 88.4902 62.8438 88.3086C62.3281 88.1211 61.792 88.0273 61.2354 88.0273C60.7314 88.0273 60.2305 88.1064 59.7324 88.2646C59.2344 88.417 58.7891 88.6426 58.3965 88.9414C58.0039 89.2402 57.6846 89.6064 57.4385 90.04C57.1982 90.4736 57.0781 90.9658 57.0781 91.5166C57.0781 92.0674 57.1982 92.5479 57.4385 92.958C57.6846 93.3623 58.001 93.7139 58.3877 94.0127C58.7686 94.3057 59.1904 94.5576 59.6533 94.7686C60.1221 94.9736 60.582 95.1494 61.0332 95.2959C61.3438 95.3955 61.666 95.5068 62 95.6299C62.3398 95.7529 62.6504 95.9053 62.9316 96.0869C63.2129 96.2744 63.4414 96.5029 63.6172 96.7725C63.7988 97.042 63.8896 97.373 63.8896 97.7656ZM68.0029 88.2031V89.6182H71V99.5938H68.0029V101H75.7373V99.5938H72.6699V89.6182H75.7373V88.2031H68.0029ZM87.0928 99.3213L87.0664 94.6279H82.918V95.999H85.5195L85.502 98.873C85.3672 99.0664 85.2002 99.2246 85.001 99.3477C84.8018 99.4648 84.5879 99.5586 84.3594 99.6289C84.1309 99.6992 83.8936 99.7461 83.6475 99.7695C83.4072 99.793 83.1758 99.8018 82.9531 99.7959C82.5664 99.79 82.2207 99.7227 81.916 99.5938C81.6113 99.459 81.3447 99.2803 81.1162 99.0576C80.8818 98.835 80.6826 98.5771 80.5186 98.2842C80.3545 97.9912 80.2197 97.6807 80.1143 97.3525C80.0088 97.0244 79.9297 96.6904 79.877 96.3506C79.8301 96.0049 79.8037 95.6709 79.7979 95.3486V93.8457C79.7979 93.5293 79.8184 93.2012 79.8594 92.8613C79.9004 92.5215 79.9678 92.1875 80.0615 91.8594C80.1553 91.5312 80.2754 91.2207 80.4219 90.9277C80.5684 90.6289 80.7529 90.3682 80.9756 90.1455C81.1982 89.9229 81.459 89.7471 81.7578 89.6182C82.0566 89.4834 82.3994 89.416 82.7861 89.416C83.1904 89.416 83.5449 89.4805 83.8496 89.6094C84.1543 89.7324 84.418 89.9053 84.6406 90.1279C84.8574 90.3506 85.0332 90.6201 85.168 90.9365C85.3027 91.2471 85.4023 91.5869 85.4668 91.9561H87.0752C87.0225 91.3584 86.8818 90.8193 86.6533 90.3389C86.4248 89.8525 86.123 89.4365 85.748 89.0908C85.373 88.751 84.9336 88.4902 84.4297 88.3086C83.9258 88.1211 83.375 88.0273 82.7773 88.0273C82.2383 88.0273 81.752 88.1064 81.3184 88.2646C80.8848 88.4229 80.498 88.6367 80.1582 88.9062C79.8125 89.1816 79.5166 89.5068 79.2705 89.8818C79.0244 90.251 78.8193 90.6523 78.6553 91.0859C78.4912 91.5195 78.3682 91.9736 78.2861 92.4482C78.21 92.917 78.1689 93.3887 78.1631 93.8633V95.3486C78.1689 95.8291 78.2158 96.3066 78.3037 96.7812C78.3975 97.25 78.5352 97.6982 78.7168 98.126C78.8926 98.5596 79.1123 98.9609 79.376 99.3301C79.6396 99.6992 79.9473 100.019 80.2988 100.288C80.6504 100.563 81.0459 100.78 81.4854 100.938C81.9307 101.091 82.417 101.17 82.9443 101.176C83.4658 101.182 83.9639 101.123 84.4385 101C84.9131 100.883 85.3555 100.701 85.7656 100.455C86.0059 100.314 86.2373 100.15 86.46 99.9629C86.6826 99.7695 86.8936 99.5557 87.0928 99.3213ZM97.6396 101V88.2031H95.9961L95.9697 97.748L91.0039 88.2031H89.3516V101H90.9951L91.0215 91.4375L95.9873 101H97.6396ZM119.278 88.2031H117.705L117.679 96.8691C117.667 97.25 117.605 97.6162 117.494 97.9678C117.383 98.3193 117.222 98.6299 117.011 98.8994C116.794 99.1748 116.527 99.3945 116.211 99.5586C115.895 99.7168 115.528 99.7959 115.112 99.7959C114.696 99.7959 114.327 99.7139 114.005 99.5498C113.688 99.3857 113.425 99.1689 113.214 98.8994C112.997 98.6299 112.83 98.3193 112.713 97.9678C112.602 97.6162 112.543 97.25 112.537 96.8691L112.502 88.2031H110.955L110.938 96.8691C110.943 97.4668 111.049 98.0293 111.254 98.5566C111.459 99.0781 111.743 99.5322 112.106 99.9189C112.47 100.312 112.906 100.619 113.416 100.842C113.926 101.064 114.491 101.176 115.112 101.176C115.722 101.176 116.281 101.064 116.791 100.842C117.301 100.613 117.74 100.303 118.109 99.9102C118.479 99.5234 118.769 99.0693 118.979 98.5479C119.19 98.0264 119.296 97.4668 119.296 96.8691L119.278 88.2031ZM123.831 95.8672H126.354C126.928 95.8613 127.47 95.7734 127.979 95.6035C128.495 95.4336 128.946 95.1875 129.333 94.8652C129.72 94.543 130.024 94.1475 130.247 93.6787C130.476 93.2041 130.59 92.6592 130.59 92.0439C130.59 91.4287 130.476 90.8838 130.247 90.4092C130.024 89.9346 129.72 89.5361 129.333 89.2139C128.946 88.8916 128.495 88.6455 127.979 88.4756C127.47 88.3057 126.928 88.2148 126.354 88.2031H122.205V101H123.831V95.8672ZM123.831 94.5312V89.5391H126.354C126.729 89.5449 127.074 89.6064 127.391 89.7236C127.713 89.8408 127.991 90.0078 128.226 90.2246C128.454 90.4414 128.633 90.7051 128.762 91.0156C128.896 91.3262 128.964 91.6748 128.964 92.0615C128.964 92.4482 128.896 92.7939 128.762 93.0986C128.633 93.3975 128.451 93.6523 128.217 93.8633C127.982 94.0742 127.707 94.2383 127.391 94.3555C127.074 94.4668 126.729 94.5254 126.354 94.5312H123.831Z" fill="white"/>
</svg>
