<svg width="120" height="120" viewBox="0 0 187 187" fill="none" xmlns="http://www.w3.org/2000/svg">
<circle cx="93.5" cy="93.5" r="93.5" fill="#25A979"/>
<circle cx="93.5" cy="93.5" r="54.5" fill="white"/>
<path d="M93.6667 32C60.2372 32 32 60.2372 32 93.6667C32 127.096 60.2372 155.333 93.6667 155.333C127.096 155.333 155.333 127.096 155.333 93.6667C155.333 60.2372 127.096 32 93.6667 32ZM93.6667 62.8333C104.317 62.8333 112.167 70.6773 112.167 81.3333C112.167 91.9893 104.317 99.8333 93.6667 99.8333C83.023 99.8333 75.1667 91.9893 75.1667 81.3333C75.1667 70.6773 83.023 62.8333 93.6667 62.8333ZM62.1797 123.094C67.7112 114.954 76.9365 109.527 87.5 109.527H99.8333C110.403 109.527 119.622 114.954 125.154 123.094C117.273 131.53 106.093 136.833 93.6667 136.833C81.2408 136.833 70.0607 131.53 62.1797 123.094Z" fill="black"/>
</svg>
