<svg width="120" height="120" viewBox="0 0 187 187" fill="none" xmlns="http://www.w3.org/2000/svg">
<circle cx="93.5" cy="93.5" r="93.5" fill="#25A979"/>
<ellipse cx="85.5" cy="87" rx="53.5" ry="58" fill="white"/>
<path d="M92.5 25C55.3661 25 24 56.3661 24 93.5C24 130.634 55.3661 162 92.5 162C129.634 162 161 130.634 161 93.5C161 56.3661 129.634 25 92.5 25ZM92.5 59.25C104.33 59.25 113.05 67.9632 113.05 79.8C113.05 91.6368 104.33 100.35 92.5 100.35C80.6769 100.35 71.95 91.6368 71.95 79.8C71.95 67.9632 80.6769 59.25 92.5 59.25ZM57.5239 126.188C63.6683 117.146 73.9159 111.118 85.65 111.118H99.35C111.091 111.118 121.332 117.146 127.476 126.188C118.722 135.559 106.303 141.45 92.5 141.45C78.6972 141.45 66.2782 135.559 57.5239 126.188Z" fill="black"/>
</svg>
